<mxfile host="Electron" agent="Mozilla/5.0 (Windows NT 10.0; Win64; x64) AppleWebKit/537.36 (KHTML, like Gecko) draw.io/25.0.2 Chrome/128.0.6613.186 Electron/32.2.5 Safari/537.36" version="25.0.2">
  <diagram name="Trang-1" id="tdZMksJxuUvifCYd1xXN">
    <mxGraphModel dx="1108" dy="732" grid="1" gridSize="10" guides="1" tooltips="1" connect="1" arrows="1" fold="1" page="1" pageScale="1" pageWidth="827" pageHeight="1169" math="0" shadow="0">
      <root>
        <mxCell id="0" />
        <mxCell id="1" parent="0" />
        <mxCell id="kqRBrqEr8xytsqY4-Nis-5" value="" style="edgeStyle=orthogonalEdgeStyle;rounded=0;orthogonalLoop=1;jettySize=auto;html=1;" parent="1" source="kqRBrqEr8xytsqY4-Nis-1" target="kqRBrqEr8xytsqY4-Nis-4" edge="1">
          <mxGeometry relative="1" as="geometry" />
        </mxCell>
        <mxCell id="kqRBrqEr8xytsqY4-Nis-1" value="start" style="ellipse;whiteSpace=wrap;html=1;" parent="1" vertex="1">
          <mxGeometry x="354" y="40" width="120" height="80" as="geometry" />
        </mxCell>
        <mxCell id="JYwMtcemxk_Rd2emVeSp-2" value="" style="edgeStyle=orthogonalEdgeStyle;rounded=0;orthogonalLoop=1;jettySize=auto;html=1;" edge="1" parent="1" source="kqRBrqEr8xytsqY4-Nis-4" target="JYwMtcemxk_Rd2emVeSp-1">
          <mxGeometry relative="1" as="geometry" />
        </mxCell>
        <mxCell id="kqRBrqEr8xytsqY4-Nis-4" value="cho hàm số ax + b = 0" style="shape=parallelogram;perimeter=parallelogramPerimeter;whiteSpace=wrap;html=1;fixedSize=1;" parent="1" vertex="1">
          <mxGeometry x="336" y="210" width="156" height="80" as="geometry" />
        </mxCell>
        <mxCell id="JYwMtcemxk_Rd2emVeSp-10" value="" style="edgeStyle=orthogonalEdgeStyle;rounded=0;orthogonalLoop=1;jettySize=auto;html=1;" edge="1" parent="1" source="JYwMtcemxk_Rd2emVeSp-1" target="JYwMtcemxk_Rd2emVeSp-9">
          <mxGeometry relative="1" as="geometry" />
        </mxCell>
        <mxCell id="JYwMtcemxk_Rd2emVeSp-1" value="tìm x= -b/a" style="rounded=1;whiteSpace=wrap;html=1;" vertex="1" parent="1">
          <mxGeometry x="354" y="380" width="120" height="60" as="geometry" />
        </mxCell>
        <mxCell id="JYwMtcemxk_Rd2emVeSp-3" value="end" style="ellipse;whiteSpace=wrap;html=1;rounded=1;" vertex="1" parent="1">
          <mxGeometry x="351" y="640" width="126" height="80" as="geometry" />
        </mxCell>
        <mxCell id="JYwMtcemxk_Rd2emVeSp-11" value="" style="edgeStyle=orthogonalEdgeStyle;rounded=0;orthogonalLoop=1;jettySize=auto;html=1;" edge="1" parent="1" source="JYwMtcemxk_Rd2emVeSp-9" target="JYwMtcemxk_Rd2emVeSp-3">
          <mxGeometry relative="1" as="geometry" />
        </mxCell>
        <mxCell id="JYwMtcemxk_Rd2emVeSp-9" value="in x&amp;nbsp;" style="shape=parallelogram;perimeter=parallelogramPerimeter;whiteSpace=wrap;html=1;fixedSize=1;" vertex="1" parent="1">
          <mxGeometry x="336" y="490" width="156" height="80" as="geometry" />
        </mxCell>
      </root>
    </mxGraphModel>
  </diagram>
</mxfile>
